<svg id="Layer_1" data-name="Layer 1" xmlns="http://www.w3.org/2000/svg" viewBox="0 0 844.56 843.78">
  <defs>
    <style>
      .cls-1, .cls-2, .cls-3, .cls-4, .cls-5 {
        fill: #894242;
      }

      .cls-1, .cls-10, .cls-2, .cls-3, .cls-4, .cls-5, .cls-6, .cls-7, .cls-8, .cls-9 {
        stroke: #fff;
        stroke-miterlimit: 10;
      }

      .cls-1, .cls-6 {
        stroke-width: 5.7px;
      }

      .cls-2, .cls-7 {
        stroke-width: 39.89px;
      }

      .cls-3, .cls-8 {
        stroke-width: 22.8px;
      }

      .cls-4, .cls-9 {
        stroke-width: 34.19px;
      }

      .cls-10, .cls-5 {
        stroke-width: 17.1px;
      }

      .cls-10, .cls-6, .cls-7, .cls-8, .cls-9 {
        fill: #558ac9;
      }
    </style>
  </defs>
  <title>bank_icon</title>
  <rect class="cls-1" x="2.85" y="2.85" width="835.86" height="835.86" rx="68.39" ry="68.39"/>
  <path class="cls-2" d="M164.83,385.69S168,308.8,232.1,308.8,763.89,312,763.89,312,828,328,828,385.69V619.54S831.16,674,767.09,690l-522.17,3.21s-57.66,6.4-76.89-56.07Z" transform="translate(-77.72 -78.11)"/>
  <rect class="cls-3" x="577.25" y="288.35" width="76.88" height="67.27"/>
  <line class="cls-4" x1="138.37" y1="423" x2="199.24" y2="423"/>
  <line class="cls-4" x1="260.6" y1="423" x2="321.46" y2="423"/>
  <line class="cls-4" x1="391.12" y1="423" x2="451.99" y2="423"/>
  <line class="cls-4" x1="522.55" y1="423" x2="583.42" y2="423"/>
  <line class="cls-4" x1="644.97" y1="423" x2="705.83" y2="423"/>
  <rect class="cls-5" x="138.37" y="470.21" width="50.08" height="45.71"/>
  <rect class="cls-5" x="260.6" y="470.21" width="60.87" height="45.71"/>
  <rect class="cls-6" x="5.85" y="5.06" width="835.86" height="835.86" rx="68.39" ry="68.39"/>
  <path class="cls-7" d="M167.83,387.9S171,311,235.1,311s531.79,3.2,531.79,3.2S831,330.24,831,387.9V621.76s3.2,54.46-60.87,70.48l-522.17,3.2s-57.66,6.41-76.89-56.06Z" transform="translate(-77.72 -78.11)"/>
  <rect class="cls-8" x="580.25" y="290.57" width="76.88" height="67.27"/>
  <line class="cls-9" x1="141.37" y1="425.21" x2="202.24" y2="425.21"/>
  <line class="cls-9" x1="263.6" y1="425.21" x2="324.46" y2="425.21"/>
  <line class="cls-9" x1="394.12" y1="425.21" x2="454.99" y2="425.21"/>
  <line class="cls-9" x1="525.55" y1="425.21" x2="586.42" y2="425.21"/>
  <line class="cls-9" x1="647.97" y1="425.21" x2="708.83" y2="425.21"/>
  <rect class="cls-10" x="141.37" y="472.42" width="50.08" height="45.71"/>
  <rect class="cls-10" x="263.6" y="472.42" width="60.87" height="45.71"/>
</svg>
