<svg id="beach" xmlns="http://www.w3.org/2000/svg" viewBox="0 0 1000 1000">
  <defs>
    <style>
      .cls-1, .cls-2 {
        fill: #bf7b43;
      }

      .cls-2 {
        stroke: #fff;
        stroke-miterlimit: 10;
        stroke-width: 33.85px;
      }
    </style>
  </defs>
  <title>beach_mo</title>
  <rect class="cls-1" width="1000" height="1000" rx="89.65" ry="89.65"/>
  <path class="cls-2" d="M151,790.08H848a7.82,7.82,0,0,0,6.6-12c-46.84-73.12-313.88-440.12-709.43-1A7.83,7.83,0,0,0,151,790.08Z" transform="translate(0)"/>
  <path class="cls-2" d="M500,664.67c1.44-26.22,3.7-117.4-29.2-177.57a7.78,7.78,0,0,0-8.78-3.76c-16.52,4.27-63.93,18.69-86.79,48.44a7.82,7.82,0,0,1-13.84-3.44c-4.78-25.91-10-69.48,4.4-88.63,17.15-22.86-35.34,3-63.2,32.4-5,5.32-14,1.28-13.43-6,2.24-30.34,10.31-77.85,38.4-92.68a8.22,8.22,0,0,0,4-9.75C325.4,344.19,315,289.25,383.18,264a7.82,7.82,0,0,1,10.53,7.76c-.86,15.95-1.36,44.49,4.79,59a7.83,7.83,0,0,0,13.76,1.23c9.4-14.48,36-43.16,94.15-29.86a7.84,7.84,0,0,1,3.76,13.24c-11,10.7-26.49,28.89-24.86,45.16a7.79,7.79,0,0,0,11,6.2c11.31-5.06,35.85-12.19,74.42-3.87a7.83,7.83,0,0,1,.61,15.15c-21.79,6.56-51.47,17-67.36,29.27a7.81,7.81,0,0,0,.59,12.73c23.35,15.13,87,69.13,93.41,210.8a7.82,7.82,0,0,1-1.38,4.8c-6.36,9.21-33.5,42.61-89.53,37.33A7.9,7.9,0,0,1,500,664.67Z" transform="translate(0)"/>
</svg>
