<svg id="beach" xmlns="http://www.w3.org/2000/svg" viewBox="0 0 877.14 876.89">
  <defs>
    <style>
      .cls-1, .cls-2 {
        fill: #8692bc;
        stroke: #fff;
        stroke-miterlimit: 10;
      }

      .cls-1 {
        stroke-width: 5.91px;
      }

      .cls-2 {
        stroke-width: 29.55px;
      }
    </style>
  </defs>
  <title>beach_icon</title>
  <rect class="cls-1" x="2.95" y="2.95" width="866.69" height="866.69" rx="70.91" ry="70.91"/>
  <path class="cls-2" d="M179.84,752h635.8S566.85,309.71,179.84,752Z" transform="translate(-66.49 -59.42)"/>
  <path class="cls-2" d="M499.3,648.9S508.52,544.47,471.66,483c0,0-73.72,15.35-89.08,58.36,0,0-18.43-70.65,0-95.22S327.3,461.54,315,492.25c0,0-3.07-92.9,39.93-106.34,0,0-32.81-71.81,52.7-96.38,0,0-6.63,67.94,11.8,69.29,0,0,21.5-53.93,98.29-29.36,0,0-43,33.5-27.64,56.45,0,0,30.71-23,95.21,0,0,0-73.71,17.27-89.07,38.77,0,0,82.93,36.86,89.07,190.43C585.3,615.11,560.73,658.11,499.3,648.9Z" transform="translate(-66.49 -59.42)"/>
  <rect class="cls-1" x="7.49" y="7.24" width="866.69" height="866.69" rx="70.91" ry="70.91"/>
  <path class="cls-2" d="M267.47,756.29H762.91c25.07,0,39.11-28.91,23.55-48.56-75-94.64-270.69-272.82-543.63-12.7C219.64,717.13,235.44,756.29,267.47,756.29Z" transform="translate(-66.49 -59.42)"/>
  <path class="cls-2" d="M503.84,653.18s9.21-104.43-27.64-165.86c0,0-73.72,15.36-89.08,58.36,0,0-18.43-70.64,0-95.22s-55.28,15.36-67.57,46.08c0,0-3.07-92.91,39.93-106.35,0,0-32.81-71.8,52.7-96.37,0,0-6.63,67.93,11.8,69.29,0,0,21.5-53.94,98.29-29.36,0,0-43,33.5-27.64,56.44,0,0,30.71-22.94,95.21,0,0,0-73.71,17.27-89.07,38.77,0,0,82.93,36.86,89.07,190.44C589.84,619.4,565.27,662.4,503.84,653.18Z" transform="translate(-66.49 -59.42)"/>
</svg>
