<svg id="coffee" xmlns="http://www.w3.org/2000/svg" viewBox="0 0 884.44 878.47">
  <defs>
    <style>
      .cls-1 {
        fill: #b25f85;
      }

      .cls-1, .cls-2, .cls-3 {
        stroke: #fff;
        stroke-miterlimit: 10;
      }

      .cls-1, .cls-3 {
        stroke-width: 5.95px;
      }

      .cls-2 {
        fill: none;
        stroke-width: 45.86px;
      }

      .cls-3 {
        fill: #af895f;
      }
    </style>
  </defs>
  <title>coffee_icon</title>
  <rect class="cls-1" x="2.97" y="2.97" width="872.53" height="872.53" rx="71.39" ry="71.39"/>
  <path class="cls-2" d="M324.36,452.83H677.25c16.55,0,29.25,15.7,27,33.3-8.59,66.15-32,212.3-76.6,265.32-14,16.7-22.6,37.87-22.6,60.38h0a4.48,4.48,0,0,1-4.31,4.63H401.43c-5.05,0-9.14-4.4-9.14-9.82h0c0-22.25-8.33-43.67-23.48-58.84-25.51-25.53-65-89.71-82.9-248.16C283.1,474.79,301.05,452.83,324.36,452.83Z" transform="translate(-49.84 -60.76)"/>
  <path class="cls-2" d="M223,530.23c-32.64,35.51-49.78,89,38.08,101.65,20.78,3,38-17.12,33.05-39l-33.27-49.2C255.93,521.71,237.82,514.14,223,530.23Z" transform="translate(-49.84 -60.76)"/>
  <path class="cls-2" d="M434.82,383.41s-28.38-33.31,0-76.14,15.93-95.17,0-109.45l-15.94-14.28" transform="translate(-49.84 -60.76)"/>
  <path class="cls-2" d="M543,383.41s39.88-38.07,0-76.14,17.72-99.93,17.72-99.93" transform="translate(-49.84 -60.76)"/>
  <path class="cls-2" d="M644.9,383.41S609.31,312,629.32,283.48s46.6-66.62,15.58-99.94" transform="translate(-49.84 -60.76)"/>
  <rect class="cls-3" x="8.94" y="2.97" width="872.53" height="872.53" rx="71.39" ry="71.39"/>
  <path class="cls-2" d="M334.33,452.83H687.22c16.55,0,29.25,15.7,27,33.3-8.59,66.15-32,212.3-76.6,265.32-14,16.7-22.6,37.87-22.6,60.38h0a4.48,4.48,0,0,1-4.31,4.63H411.4c-5,0-9.14-4.4-9.14-9.82h0c0-22.25-8.33-43.67-23.48-58.84-25.51-25.53-65-89.71-82.9-248.16C293.07,474.79,311,452.83,334.33,452.83Z" transform="translate(-49.84 -60.76)"/>
  <path class="cls-2" d="M233,530.23c-32.63,35.51-49.77,89,38.09,101.65,20.78,3,38-17.12,33.05-39l-33.27-49.2C265.89,521.71,247.79,514.14,233,530.23Z" transform="translate(-49.84 -60.76)"/>
  <path class="cls-2" d="M444.78,383.41s-28.37-33.31,0-76.14,15.94-95.17,0-109.45l-15.93-14.28" transform="translate(-49.84 -60.76)"/>
  <path class="cls-2" d="M552.94,383.41s39.88-38.07,0-76.14,17.72-99.93,17.72-99.93" transform="translate(-49.84 -60.76)"/>
  <path class="cls-2" d="M654.87,383.41S619.28,312,639.29,283.48s46.6-66.62,15.58-99.94" transform="translate(-49.84 -60.76)"/>
</svg>
