<svg id="coffee" xmlns="http://www.w3.org/2000/svg" viewBox="0 0 1000 1000">
  <defs>
    <style>
      .cls-1 {
        fill: #b25f85;
      }

      .cls-2 {
        fill: none;
        stroke: #fff;
        stroke-miterlimit: 10;
        stroke-width: 52.56px;
      }
    </style>
  </defs>
  <title>coffee_mo</title>
  <rect class="cls-1" width="1000" height="1000" rx="81.82" ry="81.82"/>
  <path class="cls-2" d="M311.21,445.94H715.66c19,0,33.53,18,30.9,38.17-9.84,75.81-36.71,243.31-87.79,304.07-16.09,19.15-25.9,43.41-25.9,69.21h0a5.13,5.13,0,0,1-4.94,5.3H399.55c-5.79,0-10.48-5-10.48-11.25h0c0-25.5-9.54-50.05-26.91-67.43-29.24-29.27-74.5-102.83-95-284.42C263.93,471.11,284.5,445.94,311.21,445.94Z" transform="translate(0 0)"/>
  <path class="cls-2" d="M195.09,534.64c-37.41,40.7-57.05,102,43.65,116.51,23.81,3.43,43.55-19.63,37.87-44.7l-38.13-56.39C232.78,524.89,212,516.21,195.09,534.64Z" transform="translate(0 0)"/>
  <path class="cls-2" d="M437.81,366.38s-32.53-38.18,0-87.27,18.26-109.08,0-125.44l-18.27-16.36" transform="translate(0 0)"/>
  <path class="cls-2" d="M561.76,366.38s45.71-43.63,0-87.27,20.32-114.53,20.32-114.53" transform="translate(0 0)"/>
  <path class="cls-2" d="M678.58,366.38s-40.78-81.81-17.85-114.54,53.41-76.35,17.85-114.53" transform="translate(0 0)"/>
</svg>
