<svg id="dress" xmlns="http://www.w3.org/2000/svg" viewBox="0 0 1000 1000">
  <defs>
    <style>
      .cls-1, .cls-2 {
        fill: #6b698e;
      }

      .cls-2 {
        stroke: #fff;
        stroke-miterlimit: 10;
        stroke-width: 34.09px;
      }
    </style>
  </defs>
  <title>dress_mo</title>
  <rect class="cls-1" width="1000" height="1000" rx="81.82" ry="81.82"/>
  <path class="cls-2" d="M419.92,221.27c19.52,10.76,57,25.76,86.64,3.66a57.75,57.75,0,0,1,36.38-11.15l46.42,1.52a58.88,58.88,0,0,1,52.5,36.34l4.13,10a58.93,58.93,0,0,1-5,54.55L611.31,362a58.8,58.8,0,0,0,6.8,72.66c46.73,48.82,132,147.47,179.35,260.73,16.16,38.71-12.54,81.4-54.49,81.4H300.41c-40.43,0-68.71-39.72-55.72-78,19.67-58,57.93-144.72,131.35-248.17a58.81,58.81,0,0,0-8.32-77.29l-59.48-54.6a58.9,58.9,0,0,1-14.09-67.11h0a58.89,58.89,0,0,1,50.58-35.09l43.46-2.46A58.62,58.62,0,0,1,419.92,221.27Z" transform="translate(0)"/>
</svg>
