<svg id="dress" xmlns="http://www.w3.org/2000/svg" viewBox="0 0 872.38 872.02">
  <defs>
    <style>
      .cls-1 {
        fill: #dd8ad3;
        stroke-width: 5.88px;
      }

      .cls-1, .cls-2 {
        stroke: #fff;
        stroke-miterlimit: 10;
      }

      .cls-2 {
        fill: none;
        stroke-width: 29.39px;
      }
    </style>
  </defs>
  <title>dress_icon</title>
  <rect class="cls-1" x="7.37" y="7.02" width="862.07" height="862.07" rx="70.53" ry="70.53"/>
  <path class="cls-2" d="M429.07,246.11c16.82,9.28,49.11,22.21,74.69,3.16a49.77,49.77,0,0,1,31.35-9.61l40,1.31a50.76,50.76,0,0,1,45.26,31.33l3.56,8.59a50.75,50.75,0,0,1-4.3,47l-25.6,39.52a50.69,50.69,0,0,0,5.87,62.63c40.29,42.09,113.84,127.13,154.61,224.77,13.93,33.37-10.81,70.17-47,70.17H326c-34.85,0-59.23-34.24-48-67.25C295,607.78,328,533,391.24,443.82a50.71,50.71,0,0,0-7.17-66.64l-51.28-47.07a50.76,50.76,0,0,1-12.14-57.85h0A50.77,50.77,0,0,1,364.25,242l37.46-2.12A50.66,50.66,0,0,1,429.07,246.11Z" transform="translate(-59.69 -48.35)"/>
  <rect class="cls-1" x="2.94" y="2.94" width="862.07" height="862.07" rx="70.53" ry="70.53"/>
  <path class="cls-2" d="M420.63,236c16.83,9.28,49.12,22.21,74.69,3.16a49.78,49.78,0,0,1,31.36-9.61l40,1.31A50.77,50.77,0,0,1,612,262.22l3.56,8.59a50.81,50.81,0,0,1-4.3,47l-25.6,39.52A50.69,50.69,0,0,0,591.49,420c40.28,42.09,113.83,127.13,154.6,224.77,13.94,33.37-10.8,70.17-47,70.17H317.61c-34.86,0-59.24-34.24-48-67.25,17-50,49.94-124.76,113.23-213.94a50.69,50.69,0,0,0-7.17-66.63L324.35,320a50.78,50.78,0,0,1-12.14-57.85h0a50.78,50.78,0,0,1,43.6-30.25l37.47-2.12A50.64,50.64,0,0,1,420.63,236Z" transform="translate(-59.69 -48.35)"/>
</svg>
