<svg id="energy" xmlns="http://www.w3.org/2000/svg" viewBox="0 0 997.6 997.6">
  <defs>
    <style>
      .cls-1, .cls-2 {
        fill: #9ed8c3;
      }

      .cls-2 {
        stroke: #fff;
        stroke-miterlimit: 10;
        stroke-width: 47.61px;
      }
    </style>
  </defs>
  <title>energy_mo</title>
  <rect class="cls-1" width="997.6" height="997.6" rx="81.62" ry="81.62"/>
  <path class="cls-2" d="M396.11,230.8,329.27,442.59a8.35,8.35,0,0,0,10.12,10.58l74.41-19.9a8.36,8.36,0,0,1,9.55,12L344.27,594.91a8.35,8.35,0,0,0,9.54,12L439.47,584a8.35,8.35,0,0,1,9.65,11.76L354.91,786.81c-4.09,8.3,6.32,16.1,13.14,9.85L651.26,536.83c6.52-6,.49-16.66-8-14.17l-95.2,27.91a8.36,8.36,0,0,1-9.58-12.2l89.4-154.69a8.35,8.35,0,0,0-9.61-12.18L527,398.66a8.36,8.36,0,0,1-10.12-11.17l82.3-201.12a8.35,8.35,0,0,0-9.89-11.23l-187.32,50.1A8.37,8.37,0,0,0,396.11,230.8Z" transform="translate(-2.4)"/>
</svg>
