<svg id="energy" xmlns="http://www.w3.org/2000/svg" viewBox="0 0 881.07 885.7">
  <defs>
    <style>
      .cls-1, .cls-2 {
        fill: #9ed8c3;
      }

      .cls-1, .cls-2, .cls-3, .cls-4 {
        stroke: #fff;
        stroke-miterlimit: 10;
      }

      .cls-1, .cls-3 {
        stroke-width: 5.97px;
      }

      .cls-2, .cls-4 {
        stroke-width: 41.77px;
      }

      .cls-3, .cls-4 {
        fill: #637287;
      }
    </style>
  </defs>
  <title>energy_icon</title>
  <rect class="cls-1" x="2.98" y="7.62" width="875.1" height="875.1" rx="71.6" ry="71.6"/>
  <path class="cls-2" d="M407.82,262.51,349.18,448.29a7.33,7.33,0,0,0,8.88,9.29l65.27-17.46a7.33,7.33,0,0,1,8.38,10.5L362.34,581.91a7.33,7.33,0,0,0,8.37,10.5l75.14-20.1a7.33,7.33,0,0,1,8.47,10.32L371.67,750.25c-3.59,7.27,5.55,14.12,11.53,8.64L631.63,531c5.72-5.25.43-14.61-7-12.43L541.11,543a7.33,7.33,0,0,1-8.41-10.7l78.42-135.69a7.33,7.33,0,0,0-8.43-10.69l-80.11,23.83a7.33,7.33,0,0,1-8.87-9.8l72.2-176.42a7.33,7.33,0,0,0-8.68-9.86L412.91,257.63A7.32,7.32,0,0,0,407.82,262.51Z" transform="translate(-59.47 -52.43)"/>
  <rect class="cls-3" x="2.98" y="2.98" width="875.1" height="875.1" rx="71.6" ry="71.6"/>
  <path class="cls-4" d="M407.82,257.87,349.18,443.66a7.33,7.33,0,0,0,8.88,9.28l65.27-17.46a7.33,7.33,0,0,1,8.38,10.5L362.34,577.27a7.33,7.33,0,0,0,8.37,10.51l75.14-20.1A7.33,7.33,0,0,1,454.32,578L371.67,745.61c-3.59,7.28,5.55,14.12,11.53,8.64L631.63,526.32c5.72-5.24.43-14.61-7-12.43l-83.51,24.49a7.33,7.33,0,0,1-8.41-10.7L611.12,392a7.33,7.33,0,0,0-8.43-10.69l-80.11,23.83a7.33,7.33,0,0,1-8.87-9.8l72.2-176.42a7.33,7.33,0,0,0-8.68-9.85L412.91,253A7.31,7.31,0,0,0,407.82,257.87Z" transform="translate(-59.47 -52.43)"/>
</svg>
