<svg id="health" xmlns="http://www.w3.org/2000/svg" viewBox="0 0 882.79 883.98">
  <defs>
    <style>
      .cls-1 {
        fill: #5f8761;
      }

      .cls-1, .cls-2, .cls-3, .cls-4 {
        stroke: #fff;
        stroke-miterlimit: 10;
      }

      .cls-1, .cls-3 {
        stroke-width: 5.98px;
      }

      .cls-2 {
        fill: none;
      }

      .cls-2, .cls-4 {
        stroke-width: 41.85px;
      }

      .cls-3, .cls-4 {
        fill: #9f9f9f;
      }
    </style>
  </defs>
  <title>health_icon</title>
  <rect class="cls-1" x="2.99" y="4.18" width="876.81" height="876.81" rx="71.74" ry="71.74"/>
  <path class="cls-2" d="M425.82,226.85H576a33.45,33.45,0,0,1,33.45,34l-2.32,132a5.34,5.34,0,0,0,5.34,5.44H758.34a37.2,37.2,0,0,1,37.19,37.25l-.18,110.29A35.18,35.18,0,0,1,760.18,581H615.4a5.35,5.35,0,0,0-5.34,5.34V737a40.62,40.62,0,0,1-40.84,40.63l-142.14-.74a36.79,36.79,0,0,1-36.6-36.43l-1.46-150a5.35,5.35,0,0,0-5.33-5.29l-122.9-.33a39.68,39.68,0,0,1-39.57-39.69V406a5.33,5.33,0,0,1,5.32-5.34l157.1-.47a5.34,5.34,0,0,0,5.33-5.34V263.71A36.85,36.85,0,0,1,425.82,226.85Z" transform="translate(-71.68 -58.51)"/>
  <rect class="cls-3" x="2.99" y="2.99" width="876.81" height="876.81" rx="71.74" ry="71.74"/>
  <path class="cls-4" d="M425.82,225.66H576a33.46,33.46,0,0,1,33.46,34l-2.33,132a5.35,5.35,0,0,0,5.34,5.44H758.33a37.2,37.2,0,0,1,37.2,37.25l-.18,110.29a35.18,35.18,0,0,1-35.18,35.12H615.4a5.34,5.34,0,0,0-5.34,5.34V735.81a40.63,40.63,0,0,1-40.85,40.63l-142.14-.74a36.8,36.8,0,0,1-36.6-36.44l-1.46-150a5.34,5.34,0,0,0-5.32-5.29l-122.9-.34A39.68,39.68,0,0,1,221.21,544V404.82a5.35,5.35,0,0,1,5.33-5.34l157.1-.46a5.34,5.34,0,0,0,5.32-5.34V262.52A36.86,36.86,0,0,1,425.82,225.66Z" transform="translate(-71.68 -58.51)"/>
</svg>
