<svg id="health" xmlns="http://www.w3.org/2000/svg" viewBox="0 0 1000 1000">
  <defs>
    <style>
      .cls-1 {
        fill: #5f8761;
      }

      .cls-2 {
        fill: none;
        stroke: #fff;
        stroke-miterlimit: 10;
        stroke-width: 47.73px;
      }
    </style>
  </defs>
  <title>health_mo</title>
  <rect class="cls-1" width="1000" height="1000" rx="81.82" ry="81.82"/>
  <path class="cls-2" d="M400.48,187.22H571.77a38.17,38.17,0,0,1,38.16,38.84l-2.66,150.53a6.09,6.09,0,0,0,6.09,6.2H779.72a42.43,42.43,0,0,1,42.42,42.49l-.21,125.78a40.12,40.12,0,0,1-40.12,40.06H616.7a6.09,6.09,0,0,0-6.09,6.09V769.05A46.34,46.34,0,0,1,564,815.39l-162.11-.85A42,42,0,0,1,360.17,773l-1.66-171.08a6.09,6.09,0,0,0-6.08-6l-140.16-.39a45.26,45.26,0,0,1-45.14-45.26V391.56a6.09,6.09,0,0,1,6.07-6.09l179.18-.53a6.1,6.1,0,0,0,6.07-6.09V229.26A42,42,0,0,1,400.48,187.22Z"/>
</svg>
