<svg id="shopping" xmlns="http://www.w3.org/2000/svg" viewBox="0 0 879.8 879.8">
  <defs>
    <style>
      .cls-1 {
        fill: #6370ce;
        stroke-width: 5.96px;
      }

      .cls-1, .cls-2 {
        stroke: #fff;
        stroke-miterlimit: 10;
      }

      .cls-2 {
        fill: none;
        stroke-width: 41.71px;
      }
    </style>
  </defs>
  <title>shopping_mo</title>
  <g id="Layer_2" data-name="Layer 2">
    <rect class="cls-1" x="2.98" y="2.98" width="873.84" height="873.84" rx="71.5" ry="71.5"/>
    <path class="cls-2" d="M228.23,470H757.71a31.51,31.51,0,0,1,30.51,39.34C771.64,574.3,734.1,703.65,683,772.56a89,89,0,0,1-71.68,35.71H352.11A93.35,93.35,0,0,1,281,775.53c-30.63-35.93-69.2-110.66-88.52-265.18A36,36,0,0,1,228.23,470Z" transform="translate(-59.08 -54.69)"/>
    <path class="cls-2" d="M258.43,470s221-592.79,448.78,0" transform="translate(-59.08 -54.69)"/>
  </g>
</svg>
