<svg xmlns="http://www.w3.org/2000/svg" viewBox="0 0 731.79 511.09">
  <defs>
    <style>
      .cls-1 {
        fill: #6370ce;
      }

      .cls-1, .cls-10, .cls-11, .cls-12, .cls-13, .cls-14, .cls-15, .cls-16, .cls-17, .cls-18, .cls-19, .cls-2, .cls-20, .cls-21, .cls-22, .cls-23, .cls-24, .cls-25, .cls-26, .cls-27, .cls-28, .cls-29, .cls-3, .cls-30, .cls-31, .cls-32, .cls-33, .cls-34, .cls-35, .cls-36, .cls-37, .cls-38, .cls-4, .cls-5, .cls-6, .cls-7, .cls-8, .cls-9 {
        stroke: #fff;
        stroke-miterlimit: 10;
      }

      .cls-2, .cls-26, .cls-35 {
        fill: none;
      }

      .cls-14, .cls-16, .cls-18, .cls-2, .cls-20, .cls-23, .cls-29, .cls-31, .cls-38, .cls-4, .cls-9 {
        stroke-width: 7px;
      }

      .cls-3, .cls-4, .cls-5, .cls-6, .cls-7 {
        fill: #894242;
      }

      .cls-10, .cls-5 {
        stroke-width: 4px;
      }

      .cls-11, .cls-6 {
        stroke-width: 6px;
      }

      .cls-12, .cls-21, .cls-24, .cls-7 {
        stroke-width: 3px;
      }

      .cls-10, .cls-11, .cls-12, .cls-8, .cls-9 {
        fill: #558ac9;
      }

      .cls-13, .cls-14 {
        fill: #eace75;
      }

      .cls-15, .cls-16 {
        fill: #9ed8c3;
      }

      .cls-17, .cls-18 {
        fill: #637287;
      }

      .cls-19, .cls-20, .cls-21 {
        fill: #577764;
      }

      .cls-22, .cls-23, .cls-24 {
        fill: #9fddb9;
      }

      .cls-25 {
        fill: #b25f85;
      }

      .cls-26 {
        stroke-width: 7.71px;
      }

      .cls-27 {
        fill: #af895f;
      }

      .cls-28, .cls-29 {
        fill: #83a4ed;
      }

      .cls-30, .cls-31 {
        fill: #e8bc42;
      }

      .cls-32, .cls-33 {
        fill: #8692bc;
      }

      .cls-33, .cls-35 {
        stroke-width: 5px;
      }

      .cls-34 {
        fill: #dd8ad3;
      }

      .cls-36 {
        fill: #5f8761;
      }

      .cls-37, .cls-38 {
        fill: #9f9f9f;
      }
    </style>
  </defs>
  <title>svg_icons</title>
  <g id="shopping">
    <g id="Layer_2" data-name="Layer 2">
      <rect class="cls-1" x="0.5" y="0.5" width="146.67" height="146.67" rx="12" ry="12"/>
      <path class="cls-2" d="M90,126.88h88.87a5.29,5.29,0,0,1,5.12,6.6c-2.78,10.9-9.08,32.61-17.65,44.17a14.93,14.93,0,0,1-12,6H110.74a15.62,15.62,0,0,1-11.92-5.5c-5.15-6-11.62-18.57-14.86-44.51A6,6,0,0,1,90,126.88Z" transform="translate(-61.56 -57.17)"/>
      <path class="cls-2" d="M95,126.88s37.1-99.5,75.32,0" transform="translate(-61.56 -57.17)"/>
    </g>
    <rect class="cls-3" x="1.44" y="0.5" width="146.67" height="146.67" rx="12" ry="12"/>
    <path class="cls-2" d="M92.94,126.88H179.3a5.63,5.63,0,0,1,5.47,7c-2.81,10.93-9,31.93-17.3,43.42a15.65,15.65,0,0,1-12.68,6.32H111.53s-19.77-3-26.31-47.87A7.79,7.79,0,0,1,92.94,126.88Z" transform="translate(-61.56 -57.17)"/>
    <path class="cls-2" d="M96,126.88s37.1-99.5,75.32,0" transform="translate(-61.56 -57.17)"/>
  </g>
  <g id="credit_card" data-name="credit card">
    <rect class="cls-3" x="184.31" y="0.5" width="146.67" height="146.67" rx="12" ry="12"/>
    <path class="cls-4" d="M260.66,111.14s.56-13.49,11.8-13.49,93.31.56,93.31.56S377,101,377,111.14v41s.56,9.56-10.68,12.37l-91.63.56s-10.12,1.12-13.49-9.84Z" transform="translate(-61.56 -57.17)"/>
    <rect class="cls-5" x="285.1" y="50.6" width="13.49" height="11.8"/>
    <line class="cls-6" x1="208.09" y1="74.22" x2="218.77" y2="74.22"/>
    <line class="cls-6" x1="229.54" y1="74.22" x2="240.22" y2="74.22"/>
    <line class="cls-6" x1="252.44" y1="74.22" x2="263.12" y2="74.22"/>
    <line class="cls-6" x1="275.5" y1="74.22" x2="286.18" y2="74.22"/>
    <line class="cls-6" x1="296.98" y1="74.22" x2="307.66" y2="74.22"/>
    <rect class="cls-7" x="208.09" y="82.51" width="8.79" height="8.02"/>
    <rect class="cls-7" x="229.54" y="82.51" width="10.68" height="8.02"/>
    <rect class="cls-8" x="184.84" y="0.89" width="146.67" height="146.67" rx="12" ry="12"/>
    <path class="cls-9" d="M261.18,111.52S261.75,98,273,98s93.31.57,93.31.57,11.24,2.81,11.24,12.92v41s.56,9.55-10.68,12.37l-91.62.56s-10.12,1.12-13.49-9.84Z" transform="translate(-61.56 -57.17)"/>
    <rect class="cls-10" x="285.63" y="50.99" width="13.49" height="11.8"/>
    <line class="cls-11" x1="208.62" y1="74.61" x2="219.3" y2="74.61"/>
    <line class="cls-11" x1="230.06" y1="74.61" x2="240.74" y2="74.61"/>
    <line class="cls-11" x1="252.97" y1="74.61" x2="263.65" y2="74.61"/>
    <line class="cls-11" x1="276.03" y1="74.61" x2="286.71" y2="74.61"/>
    <line class="cls-11" x1="297.51" y1="74.61" x2="308.19" y2="74.61"/>
    <rect class="cls-12" x="208.62" y="82.89" width="8.79" height="8.02"/>
    <rect class="cls-12" x="230.06" y="82.89" width="10.68" height="8.02"/>
  </g>
  <g id="house">
    <rect class="cls-13" x="387.17" y="0.89" width="146.67" height="146.67" rx="12" ry="12"/>
    <polygon class="cls-14" points="411.91 77.14 411.9 126.98 507.37 126.72 507.37 77.14 411.91 77.14"/>
    <polygon class="cls-14" points="486.8 75.82 467.27 44.35 464.38 39.69 429.3 39.69 411.91 77.14 486.8 75.82"/>
    <polygon class="cls-14" points="480.2 25.45 467.27 44.35 486.8 75.82 507.37 77.14 495.24 25.45 480.2 25.45"/>
    <polygon class="cls-14" points="445.83 97.09 445.83 126.48 471.93 126.24 471.93 97.09 445.83 97.09"/>
    <path class="cls-14" d="M520.44,178v0Z" transform="translate(-61.56 -57.17)"/>
  </g>
  <g id="energy">
    <rect class="cls-15" x="584.62" y="1.28" width="146.67" height="146.67" rx="12" ry="12"/>
    <path class="cls-16" d="M704.07,92.38l-9.83,31.13a1.23,1.23,0,0,0,1.49,1.56l10.94-2.93a1.23,1.23,0,0,1,1.4,1.76l-11.62,22a1.22,1.22,0,0,0,1.4,1.76l12.59-3.37a1.23,1.23,0,0,1,1.42,1.73L698,174.12a1.23,1.23,0,0,0,1.93,1.45l41.64-38.2a1.23,1.23,0,0,0-1.18-2.09l-14,4.11a1.23,1.23,0,0,1-1.41-1.8l13.14-22.74a1.23,1.23,0,0,0-1.41-1.79l-13.43,4a1.22,1.22,0,0,1-1.48-1.64l12.1-29.57a1.23,1.23,0,0,0-1.46-1.65l-27.54,7.37A1.23,1.23,0,0,0,704.07,92.38Z" transform="translate(-61.56 -57.17)"/>
    <rect class="cls-17" x="584.62" y="0.5" width="146.67" height="146.67" rx="12" ry="12"/>
    <path class="cls-18" d="M704.07,91.6l-9.83,31.14a1.23,1.23,0,0,0,1.49,1.55l10.94-2.92a1.23,1.23,0,0,1,1.4,1.76l-11.62,22a1.22,1.22,0,0,0,1.4,1.76l12.59-3.37a1.23,1.23,0,0,1,1.42,1.73L698,173.34a1.23,1.23,0,0,0,1.93,1.45l41.64-38.2a1.23,1.23,0,0,0-1.18-2.08l-14,4.1a1.23,1.23,0,0,1-1.41-1.79l13.14-22.74a1.23,1.23,0,0,0-1.41-1.8l-13.43,4a1.22,1.22,0,0,1-1.48-1.64l12.1-29.57a1.23,1.23,0,0,0-1.46-1.65l-27.54,7.36A1.23,1.23,0,0,0,704.07,91.6Z" transform="translate(-61.56 -57.17)"/>
  </g>
  <g id="teapot">
    <rect class="cls-19" x="1.44" y="185.98" width="146.67" height="146.67" rx="12" ry="12"/>
    <path class="cls-20" d="M101.88,298.42h66s7.45,23.76,4.85,43.68c-.69,5.25-4.64,10.69-6.85,14.6a9.5,9.5,0,0,1-8.27,4.81H107.85a10.2,10.2,0,0,1-9.13-5.69c-1.84-3.72-3.87-8.65-4.12-12.75C94.11,335.3,91.2,323.66,101.88,298.42Z" transform="translate(-61.56 -57.17)"/>
    <path class="cls-21" d="M173.38,312s4.15-13.59,10.73-15.53l6.57-1.94v3.88s-7.81,13.18-5.73,17.06,4.13,23.22-11.57,20.79Z" transform="translate(-61.56 -57.17)"/>
    <path class="cls-21" d="M119.35,285.8s16.5-9.7,30.08,0c5.4,3.86,9.41,6.64,12.3,8.59a2.21,2.21,0,0,1-1.24,4H107.72a2.13,2.13,0,0,1-1.34-3.78C110.24,291.52,115.72,287.35,119.35,285.8Z" transform="translate(-61.56 -57.17)"/>
    <path class="cls-21" d="M101.88,298.42" transform="translate(-61.56 -57.17)"/>
    <path class="cls-20" d="M190.68,294.54" transform="translate(-61.56 -57.17)"/>
    <rect class="cls-22" x="1.44" y="185.98" width="146.67" height="146.67" rx="12" ry="12"/>
    <path class="cls-23" d="M101.88,298.42h66s7.45,23.76,4.85,43.68c-.69,5.25-4.64,10.69-6.85,14.6a9.5,9.5,0,0,1-8.27,4.81H107.85a10.2,10.2,0,0,1-9.13-5.69c-1.84-3.72-3.87-8.65-4.12-12.75C94.11,335.3,91.2,323.66,101.88,298.42Z" transform="translate(-61.56 -57.17)"/>
    <path class="cls-24" d="M173.38,312s4.15-13.59,10.73-15.53l6.57-1.94v3.88s-7.81,13.18-5.73,17.06,4.13,23.22-11.57,20.79Z" transform="translate(-61.56 -57.17)"/>
    <path class="cls-24" d="M119.35,285.8s16.5-9.7,30.08,0c5.4,3.86,9.41,6.64,12.3,8.59a2.21,2.21,0,0,1-1.24,4H107.72a2.13,2.13,0,0,1-1.34-3.78C110.24,291.52,115.72,287.35,119.35,285.8Z" transform="translate(-61.56 -57.17)"/>
    <path class="cls-24" d="M101.88,298.42" transform="translate(-61.56 -57.17)"/>
    <path class="cls-23" d="M190.68,294.54" transform="translate(-61.56 -57.17)"/>
  </g>
  <g id="coffee">
    <rect class="cls-25" x="1.51" y="360.29" width="146.67" height="146.67" rx="12" ry="12"/>
    <path class="cls-26" d="M109.38,482.86H168.7a4.81,4.81,0,0,1,4.54,5.6c-1.45,11.12-5.39,35.68-12.88,44.6a15.79,15.79,0,0,0-3.8,10.15h0a.74.74,0,0,1-.72.77h-33.5a1.6,1.6,0,0,1-1.54-1.65h0a14,14,0,0,0-3.94-9.89c-4.29-4.29-10.93-15.08-13.94-41.71C102.45,486.55,105.47,482.86,109.38,482.86Z" transform="translate(-61.56 -57.17)"/>
    <path class="cls-26" d="M92.35,495.87c-5.48,6-8.36,14.95,6.4,17.09,3.5.5,6.39-2.88,5.56-6.56l-5.59-8.27C97.88,494.44,94.84,493.17,92.35,495.87Z" transform="translate(-61.56 -57.17)"/>
    <path class="cls-26" d="M128,471.19s-4.77-5.6,0-12.8,2.68-16,0-18.4l-2.68-2.4" transform="translate(-61.56 -57.17)"/>
    <path class="cls-26" d="M146.13,471.19s6.71-6.4,0-12.8,3-16.8,3-16.8" transform="translate(-61.56 -57.17)"/>
    <path class="cls-26" d="M163.27,471.19s-6-12-2.62-16.8,7.83-11.2,2.62-16.8" transform="translate(-61.56 -57.17)"/>
    <rect class="cls-27" x="3.18" y="360.29" width="146.67" height="146.67" rx="12" ry="12"/>
    <path class="cls-26" d="M111.06,482.86h59.32a4.81,4.81,0,0,1,4.53,5.6c-1.44,11.12-5.38,35.68-12.87,44.6a15.79,15.79,0,0,0-3.8,10.15h0a.75.75,0,0,1-.73.77H124a1.6,1.6,0,0,1-1.54-1.65h0a14,14,0,0,0-4-9.89c-4.29-4.29-10.92-15.08-13.93-41.71C104.12,486.55,107.14,482.86,111.06,482.86Z" transform="translate(-61.56 -57.17)"/>
    <path class="cls-26" d="M94,495.87c-5.49,6-8.37,14.95,6.4,17.09,3.49.5,6.39-2.88,5.56-6.56l-5.6-8.27C99.56,494.44,96.51,493.17,94,495.87Z" transform="translate(-61.56 -57.17)"/>
    <path class="cls-26" d="M129.63,471.19s-4.77-5.6,0-12.8,2.68-16,0-18.4l-2.68-2.4" transform="translate(-61.56 -57.17)"/>
    <path class="cls-26" d="M147.81,471.19s6.7-6.4,0-12.8,3-16.8,3-16.8" transform="translate(-61.56 -57.17)"/>
    <path class="cls-26" d="M164.94,471.19s-6-12-2.62-16.8,7.84-11.2,2.62-16.8" transform="translate(-61.56 -57.17)"/>
  </g>
  <g id="weather">
    <rect class="cls-28" x="182.21" y="363.92" width="146.67" height="146.67" rx="12" ry="12"/>
    <circle class="cls-29" cx="255.52" cy="438.26" r="27.87"/>
    <polygon class="cls-29" points="244.59 401.25 253.24 388.51 262.92 401.25 244.59 401.25"/>
    <polygon class="cls-29" points="217.96 425.76 211.97 411.58 227.92 410.37 217.96 425.76"/>
    <polygon class="cls-29" points="222.74 460.73 207.92 456.54 216.94 443.33 222.74 460.73"/>
    <polygon class="cls-29" points="253.5 477.11 242.08 487.44 235.68 472.79 253.5 477.11"/>
    <polygon class="cls-29" points="286.88 466.17 285.4 481.5 270.8 474.98 286.88 466.17"/>
    <polygon class="cls-29" points="294.99 433.45 307.64 442.23 294.81 451.79 294.99 433.45"/>
    <polygon class="cls-29" points="277.01 406.86 292.23 404.5 289.52 420.26 277.01 406.86"/>
    <rect class="cls-30" x="182.19" y="363.14" width="146.67" height="146.67" rx="12" ry="12"/>
    <circle class="cls-31" cx="255.51" cy="437.47" r="27.87"/>
    <polygon class="cls-31" points="244.57 400.46 253.23 387.73 262.9 400.46 244.57 400.46"/>
    <polygon class="cls-31" points="217.94 424.98 211.96 410.8 227.9 409.59 217.94 424.98"/>
    <polygon class="cls-31" points="222.72 459.94 207.91 455.75 216.92 442.55 222.72 459.94"/>
    <polygon class="cls-31" points="253.48 476.32 242.06 486.66 235.66 472 253.48 476.32"/>
    <polygon class="cls-31" points="286.86 465.39 285.38 480.71 270.78 474.19 286.86 465.39"/>
    <polygon class="cls-31" points="294.97 432.67 307.62 441.45 294.8 451 294.97 432.67"/>
    <polygon class="cls-31" points="277 406.08 292.21 403.72 289.51 419.48 277 406.08"/>
  </g>
  <g id="beach">
    <rect class="cls-32" x="183.19" y="185.01" width="146.67" height="146.67" rx="12" ry="12"/>
    <path class="cls-33" d="M263.43,358.88H371S328.93,284,263.43,358.88Z" transform="translate(-61.56 -57.17)"/>
    <path class="cls-33" d="M317.49,341.43s1.56-17.67-4.67-28.07c0,0-12.48,2.6-15.08,9.88,0,0-3.12-11.95,0-16.11s-9.35,2.6-11.43,7.79c0,0-.52-15.72,6.76-18,0,0-5.56-12.15,8.91-16.31,0,0-1.12,11.5,2,11.72,0,0,3.64-9.12,16.63-5,0,0-7.27,5.67-4.67,9.55,0,0,5.19-3.88,16.11,0,0,0-12.48,2.92-15.07,6.56,0,0,14,6.24,15.07,32.23C332.05,335.72,327.89,343,317.49,341.43Z" transform="translate(-61.56 -57.17)"/>
    <rect class="cls-32" x="183.96" y="185.74" width="146.67" height="146.67" rx="12" ry="12"/>
    <path class="cls-33" d="M278.26,359.61h83.85a5.07,5.07,0,0,0,4-8.22c-12.69-16-45.81-46.17-92-2.15A6,6,0,0,0,278.26,359.61Z" transform="translate(-61.56 -57.17)"/>
    <path class="cls-33" d="M318.26,342.16s1.56-17.67-4.67-28.07c0,0-12.48,2.6-15.08,9.88,0,0-3.12-12,0-16.12s-9.35,2.6-11.43,7.8c0,0-.52-15.72,6.75-18,0,0-5.55-12.15,8.92-16.31,0,0-1.12,11.5,2,11.73,0,0,3.64-9.13,16.63-5,0,0-7.27,5.67-4.68,9.55,0,0,5.2-3.88,16.12,0,0,0-12.48,2.93-15.08,6.56,0,0,14,6.24,15.08,32.23C332.82,336.44,328.66,343.72,318.26,342.16Z" transform="translate(-61.56 -57.17)"/>
  </g>
  <g id="dress">
    <rect class="cls-34" x="584.62" y="181.76" width="146.67" height="146.67" rx="12" ry="12"/>
    <path class="cls-35" d="M707.09,270.36c2.86,1.57,8.36,3.77,12.71.53a8.46,8.46,0,0,1,5.33-1.63l6.81.22a8.64,8.64,0,0,1,7.7,5.33l.61,1.46a8.64,8.64,0,0,1-.73,8L735.16,291a8.63,8.63,0,0,0,1,10.66c6.85,7.16,19.37,21.63,26.3,38.24a8.63,8.63,0,0,1-8,11.94H689.56a8.64,8.64,0,0,1-8.17-11.44c2.89-8.5,8.5-21.23,19.27-36.4a8.64,8.64,0,0,0-1.22-11.34l-8.73-8a8.65,8.65,0,0,1-2.06-9.85h0a8.61,8.61,0,0,1,7.41-5.14l6.38-.36A8.48,8.48,0,0,1,707.09,270.36Z" transform="translate(-61.56 -57.17)"/>
    <rect class="cls-34" x="583.19" y="180.04" width="146.67" height="146.67" rx="12" ry="12"/>
    <path class="cls-35" d="M705.66,268.64c2.86,1.58,8.35,3.78,12.71.54a8.47,8.47,0,0,1,5.33-1.64l6.81.22a8.66,8.66,0,0,1,7.7,5.34l.6,1.46a8.61,8.61,0,0,1-.73,8l-4.35,6.72a8.62,8.62,0,0,0,1,10.66c6.85,7.16,19.36,21.63,26.3,38.24a8.64,8.64,0,0,1-8,11.94H688.13A8.65,8.65,0,0,1,680,338.67c2.88-8.5,8.49-21.22,19.26-36.39A8.63,8.63,0,0,0,698,290.94l-8.72-8a8.63,8.63,0,0,1-2.07-9.84h0a8.67,8.67,0,0,1,7.42-5.15l6.37-.36A8.67,8.67,0,0,1,705.66,268.64Z" transform="translate(-61.56 -57.17)"/>
  </g>
  <g id="health">
    <rect class="cls-36" x="387.17" y="184.72" width="146.67" height="146.67" rx="12" ry="12"/>
    <path class="cls-2" d="M507.47,269.34h25.12a5.61,5.61,0,0,1,5.6,5.7l-.39,22.08a.89.89,0,0,0,.89.91h24.4a6.22,6.22,0,0,1,6.22,6.23l0,18.45a5.88,5.88,0,0,1-5.88,5.87H539.18a.89.89,0,0,0-.89.89v25.21a6.8,6.8,0,0,1-6.83,6.79l-23.78-.12a6.15,6.15,0,0,1-6.12-6.1l-.25-25.09a.88.88,0,0,0-.89-.88l-20.55-.06a6.64,6.64,0,0,1-6.62-6.64V299.31a.89.89,0,0,1,.89-.89l26.27-.08a.89.89,0,0,0,.9-.89V275.51A6.16,6.16,0,0,1,507.47,269.34Z" transform="translate(-61.56 -57.17)"/>
    <rect class="cls-37" x="387.17" y="184.52" width="146.67" height="146.67" rx="12" ry="12"/>
    <path class="cls-38" d="M507.47,269.14h25.12a5.61,5.61,0,0,1,5.6,5.7l-.39,22.08a.89.89,0,0,0,.89.91h24.4a6.22,6.22,0,0,1,6.22,6.23l0,18.45a5.88,5.88,0,0,1-5.88,5.87H539.18a.89.89,0,0,0-.89.89v25.21a6.8,6.8,0,0,1-6.83,6.79l-23.78-.12a6.15,6.15,0,0,1-6.12-6.1L501.31,330a.88.88,0,0,0-.89-.88L479.86,329a6.64,6.64,0,0,1-6.62-6.64V299.11a.89.89,0,0,1,.9-.89l26.27-.08a.89.89,0,0,0,.89-.89V275.31A6.17,6.17,0,0,1,507.47,269.14Z" transform="translate(-61.56 -57.17)"/>
  </g>
</svg>
