<svg id="teapot" xmlns="http://www.w3.org/2000/svg" viewBox="0 0 879.67 879.67">
  <defs>
    <style>
      .cls-1, .cls-2, .cls-3 {
        fill: #577764;
      }

      .cls-1, .cls-2, .cls-3, .cls-4, .cls-5, .cls-6 {
        stroke: #fff;
        stroke-miterlimit: 10;
      }

      .cls-1, .cls-4 {
        stroke-width: 5.96px;
      }

      .cls-2, .cls-5 {
        stroke-width: 41.7px;
      }

      .cls-3, .cls-6 {
        stroke-width: 17.87px;
      }

      .cls-4, .cls-5, .cls-6 {
        fill: #9fddb9;
      }
    </style>
  </defs>
  <title>teapot_icon</title>
  <rect class="cls-1" x="2.98" y="2.98" width="873.71" height="873.71" rx="71.49" ry="71.49"/>
  <path class="cls-2" d="M294.59,384.67H687.76s44.42,141.57,28.91,260.19c-4.09,31.29-27.62,63.71-40.8,87a56.59,56.59,0,0,1-49.28,28.65H330.2a60.74,60.74,0,0,1-54.39-33.88c-11-22.19-23.06-51.51-24.59-76C248.33,604.38,231,535,294.59,384.67Z" transform="translate(-60.02 -52.42)"/>
  <path class="cls-3" d="M720.56,465.62s24.72-80.95,63.9-92.51l39.17-11.57v23.13s-46.52,78.49-34.17,101.61,24.61,138.33-68.9,123.88Z" transform="translate(-60.02 -52.42)"/>
  <path class="cls-3" d="M398.66,309.51s98.3-57.82,179.24,0C610,332.45,634,349,651.14,360.67c10.72,7.26,5.57,24-7.38,24H329.41c-12,0-17.28-15-8-22.51C344.39,343.55,377.07,318.75,398.66,309.51Z" transform="translate(-60.02 -52.42)"/>
  <path class="cls-3" d="M294.59,384.67" transform="translate(-60.02 -52.42)"/>
  <path class="cls-2" d="M823.63,361.54" transform="translate(-60.02 -52.42)"/>
  <rect class="cls-4" x="2.98" y="2.98" width="873.71" height="873.71" rx="71.49" ry="71.49"/>
  <path class="cls-5" d="M294.59,384.67H687.76s44.42,141.57,28.91,260.19c-4.09,31.29-27.62,63.71-40.8,87a56.59,56.59,0,0,1-49.28,28.65H330.2a60.74,60.74,0,0,1-54.39-33.88c-11-22.19-23.06-51.51-24.59-76C248.33,604.38,231,535,294.59,384.67Z" transform="translate(-60.02 -52.42)"/>
  <path class="cls-6" d="M720.56,465.62s24.72-80.95,63.9-92.51l39.17-11.57v23.13s-46.52,78.49-34.17,101.61,24.61,138.33-68.9,123.88Z" transform="translate(-60.02 -52.42)"/>
  <path class="cls-6" d="M398.66,309.51s98.3-57.82,179.24,0C610,332.45,634,349,651.14,360.67c10.72,7.26,5.57,24-7.38,24H329.41c-12,0-17.28-15-8-22.51C344.39,343.55,377.07,318.75,398.66,309.51Z" transform="translate(-60.02 -52.42)"/>
  <path class="cls-6" d="M294.59,384.67" transform="translate(-60.02 -52.42)"/>
  <path class="cls-5" d="M823.63,361.54" transform="translate(-60.02 -52.42)"/>
</svg>
